<svg xmlns="http://www.w3.org/2000/svg" viewBox="0 0 135.61 157.57"><defs><style>.cls-1{fill:#fff;}</style></defs><g id="Calque_2" data-name="Calque 2"><g id="Calque_1-2" data-name="Calque 1"><g id="a3ukOV"><path class="cls-1" d="M0,78.86Q0,44.14,0,9.42C0,1.45,1.41,0,9.19,0H82.63c7.59,0,9.2,1.56,9.21,9q0,69.94,0,139.88c0,7-1.52,8.58-8.5,8.59q-37.47,0-74.94,0c-6.94,0-8.37-1.52-8.38-8.65Q0,113.83,0,78.86Zm23.11,37c-6.52.06-12-1-11.59,7.1,0,5.34,1.79,6.89,7.85,6.93,2.33,0,4.65,0,7,0,6.59,0,8-1.27,7.93-7.18C34.61,114.72,29.86,116.05,23.11,115.89Zm48.25,0c-6.13.19-12-1.58-12,6.77,0,5.19,1.67,7.11,6.58,7.23,3,.08,6,0,9,0,5.71,0,7.27-1.53,7.3-6.87C82.68,114.87,78,116,71.36,115.9ZM34.71,22.51c-6,0-12-.2-17.95.12-1.93.1-3.79,1.56-5.69,2.4,1.82.92,3.62,2.6,5.45,2.64,12,.24,23.94.22,35.91,0,1.74,0,3.46-1.57,5.2-2.42-1.66-.91-3.27-2.53-5-2.62C46.69,22.32,40.69,22.51,34.71,22.51Zm-.54,24.3c6.32,0,12.64.17,18.95-.12,1.53-.08,3-1.68,4.49-2.59-1.38-.83-2.76-2.36-4.15-2.38q-19.2-.28-38.4,0c-1.35,0-2.68,1.64-4,2.52,1.39.86,2.76,2.39,4.18,2.45C21.53,47,27.85,46.81,34.17,46.81Zm.1,13.82c-6.48,0-13-.12-19.44.11-1.28,0-2.51,1.47-3.75,2.26,1.29,1,2.57,2.7,3.87,2.72q19.46.32,38.9,0c1.26,0,2.49-1.86,3.73-2.85-1.28-.74-2.55-2.09-3.85-2.14C47.25,60.51,40.76,60.63,34.27,60.63Zm-.16,24.22c6.49,0,13,.15,19.44-.12,1.39-.06,2.72-1.64,4.07-2.52-1.37-.84-2.72-2.39-4.1-2.41q-19.2-.28-38.39,0c-1.37,0-2.72,1.59-4.08,2.44,1.38.87,2.72,2.43,4.12,2.49C21.48,85,27.8,84.85,34.11,84.85Zm.19,13.88v0c-6.48,0-13-.13-19.44.1-1.28,0-2.52,1.43-3.77,2.2,1.29.93,2.56,2.66,3.87,2.68q19.44.3,38.88,0c1.26,0,2.49-1.81,3.74-2.78-1.28-.74-2.54-2.07-3.85-2.12C47.26,98.61,40.78,98.73,34.3,98.73Zm36.32-71a53.26,53.26,0,0,0,7.48-.11c1-.15,1.84-1.56,2.75-2.4-.86-.86-1.67-2.41-2.56-2.46-4.81-.26-9.65-.26-14.47,0-.92,0-1.77,1.51-2.66,2.32,1,.9,1.87,2.36,3,2.59A31.61,31.61,0,0,0,70.62,27.73Zm.73,13.92v0a58.07,58.07,0,0,0-7.47.11c-1,.13-1.82,1.45-2.72,2.23.81.9,1.58,2.53,2.44,2.58a142.13,142.13,0,0,0,14.45.07c1,0,1.86-1.53,2.78-2.36-1-.88-1.89-2.3-3-2.53A33.9,33.9,0,0,0,71.35,41.65Zm-.81,24.16A44.24,44.24,0,0,0,78,65.68c1.07-.19,1.88-1.83,2.81-2.81-1-.73-1.92-2-2.93-2.09-4.65-.22-9.33-.22-14,0-.95.05-1.84,1.44-2.76,2.22,1,.93,1.81,2.43,2.92,2.66C66.14,66.11,68.37,65.81,70.54,65.81Zm.45,19v0c2.33,0,4.72.3,7-.13,1.09-.21,1.91-1.8,2.85-2.76-1-.74-1.9-2.06-2.89-2.11-4.65-.22-9.33-.22-14,0-1,0-1.86,1.41-2.79,2.16,1,.94,1.79,2.48,2.87,2.68A38.52,38.52,0,0,0,71,84.81Zm0,19a38.67,38.67,0,0,0,6.9-.12c1.1-.21,2-1.71,2.93-2.62-.91-.77-1.8-2.15-2.74-2.2-4.77-.22-9.56-.21-14.33,0-.91,0-1.76,1.47-2.64,2.25,1,.89,1.87,2.35,3,2.55A39.63,39.63,0,0,0,71,103.83Z"/><path class="cls-1" d="M122.72,79c0-24.47,0-48.95.07-73.42,0-1.79.82-5,1.57-5.12a40.69,40.69,0,0,1,10.27.34c.45.06.89,2.33.89,3.58q.06,74.41.09,148.84c.06,5.9-3.86,3.84-7.83,4.29s-5.17-1.16-5.14-5.09C122.82,127.92,122.69,103.44,122.72,79Z"/><path class="cls-1" d="M101.16,157.45c0-50.45,0-100.66.06-151.09,0-2,.55-5.58,1.32-5.72a34.55,34.55,0,0,1,10.25.09c.6.08,1.28,2.53,1.28,3.89q.11,74.16.1,148.31c0,3.14-1,4.69-4.28,4.55C107.13,157.36,104.36,157.45,101.16,157.45Z"/></g></g></g></svg>