<?xml version="1.0" encoding="utf-8"?>
<!-- Generator: Adobe Illustrator 25.4.1, SVG Export Plug-In . SVG Version: 6.00 Build 0)  -->
<svg version="1.1" id="Calque_1" xmlns="http://www.w3.org/2000/svg" xmlns:xlink="http://www.w3.org/1999/xlink" x="0px" y="0px"
	 viewBox="0 0 404 228" style="enable-background:new 0 0 404 228;" xml:space="preserve">
<style type="text/css">
	.st0{fill:#FFFFFF;}
	.st1{enable-background:new    ;}
	.st2{fill:none;stroke:#FFFFFF;stroke-miterlimit:10;}
</style>
<g id="Calque_2_00000140729471458141534680000015528377492120808332_">
	<g id="Calque_1-2">
		<g id="a3ukOV">
			<path class="st0" d="M41.5,109.6c0-23.1,0-46.3,0-69.4c0-8,1.4-9.4,9.2-9.4h73.4c7.6,0,9.2,1.6,9.2,9c0,46.6,0,93.2,0,139.9
				c0,7-1.5,8.6-8.5,8.6c-25,0-50,0-74.9,0c-7,0-8.4-1.5-8.4-8.6C41.5,156.2,41.5,132.9,41.5,109.6z M64.6,146.6
				c-6.5,0.1-12-1-11.6,7.1c0,5.3,1.8,6.9,7.9,6.9h7c6.6,0,8-1.3,7.9-7.2C76.1,145.5,71.4,146.8,64.6,146.6L64.6,146.6z
				 M112.9,146.6c-6.1,0.2-12-1.6-12,6.8c0,5.2,1.7,7.1,6.6,7.2c3,0.1,6,0,9,0c5.7-0.1,7.3-1.5,7.3-6.9
				C124.2,145.6,119.6,146.7,112.9,146.6L112.9,146.6z M76.2,53.2c-6,0-12-0.2-18,0.1c-1.9,0.1-3.8,1.6-5.7,2.4
				c1.8,0.9,3.6,2.6,5.5,2.6c12,0.2,23.9,0.2,35.9,0c1.8,0,3.5-1.6,5.2-2.4c-1.7-0.9-3.3-2.5-5-2.6C88.2,53,82.2,53.2,76.2,53.2z
				 M75.7,77.6c6.3,0,12.6,0.2,18.9-0.1c1.5-0.1,3-1.7,4.5-2.6c-1.4-0.8-2.8-2.4-4.1-2.4c-12.8-0.2-25.6-0.2-38.4,0
				c-1.3,0-2.7,1.6-4,2.5c1.4,0.8,2.8,2.4,4.2,2.4C63,77.7,69.4,77.5,75.7,77.6z M75.8,91.4c-6.5,0-13-0.1-19.5,0.1
				c-1.3,0-2.5,1.5-3.8,2.3c1.3,1,2.6,2.7,3.9,2.7c13,0.2,25.9,0.2,38.9,0c1.3,0,2.5-1.9,3.7-2.8c-1.3-0.8-2.5-2.1-3.8-2.1
				C88.8,91.2,82.3,91.4,75.8,91.4z M75.6,115.6c6.5,0,13,0.2,19.4-0.1c1.4-0.1,2.7-1.6,4.1-2.5c-1.4-0.8-2.7-2.4-4.1-2.4
				c-12.8-0.2-25.6-0.2-38.4,0c-1.4,0-2.7,1.6-4.1,2.4c1.4,0.9,2.7,2.4,4.1,2.5C63,115.7,69.3,115.6,75.6,115.6z M75.8,129.5
				L75.8,129.5c-6.5,0-13-0.1-19.4,0.1c-1.3,0-2.5,1.4-3.8,2.2c1.3,0.9,2.6,2.7,3.9,2.7c13,0.2,25.9,0.2,38.9,0
				c1.3,0,2.5-1.8,3.7-2.8c-1.3-0.7-2.5-2.1-3.8-2.1C88.8,129.4,82.3,129.5,75.8,129.5z M112.1,58.5c2.5,0.1,5,0.1,7.5-0.1
				c1-0.2,1.8-1.6,2.8-2.4c-0.8-0.9-1.7-2.4-2.6-2.5c-4.8-0.2-9.6-0.2-14.5,0c-0.9,0-1.8,1.5-2.7,2.3c1,0.9,1.9,2.4,3,2.6
				C107.8,58.8,110,58.5,112.1,58.5z M112.9,72.4L112.9,72.4c-2.5-0.1-5-0.1-7.5,0.1c-1,0.1-1.8,1.4-2.7,2.2
				c0.8,0.9,1.6,2.5,2.4,2.6c4.8,0.3,9.6,0.3,14.5,0.1c1,0,1.8-1.5,2.8-2.3c-1-0.9-1.9-2.3-3-2.5C117.2,72.2,115,72.2,112.9,72.4z
				 M112.1,96.6c2.5,0.2,5,0.1,7.5-0.1c1.1-0.2,1.9-1.8,2.8-2.8c-1-0.7-1.9-2-2.9-2.1c-4.7-0.2-9.3-0.2-14,0c-1,0-1.8,1.4-2.8,2.2
				c1,0.9,1.8,2.4,2.9,2.7C107.7,96.8,109.9,96.5,112.1,96.6z M112.5,115.6L112.5,115.6c2.3,0,4.7,0.3,7-0.1
				c1.1-0.2,1.9-1.8,2.8-2.8c-1-0.7-1.9-2-2.9-2.1c-4.7-0.2-9.3-0.2-14,0c-1,0-1.9,1.4-2.8,2.2c1,0.9,1.8,2.5,2.9,2.7
				C107.9,115.7,110.2,115.7,112.5,115.6z M112.5,134.6c2.3,0.2,4.6,0.1,6.9-0.1c1.1-0.2,2-1.7,2.9-2.6c-0.9-0.8-1.8-2.2-2.8-2.2
				c-4.8-0.2-9.6-0.2-14.3,0c-0.9,0-1.8,1.5-2.6,2.2c1,0.9,1.9,2.3,3,2.5C107.9,134.7,110.2,134.7,112.5,134.6L112.5,134.6z"/>
			<path class="st0" d="M164.2,109.7c0-24.5,0-49,0.1-73.4c0-1.8,0.8-5,1.6-5.1c3.4-0.3,6.9-0.2,10.3,0.3c0.5,0.1,0.9,2.3,0.9,3.6
				c0.1,49.6,0.1,99.2,0.1,148.8c0.1,5.9-3.9,3.8-7.8,4.3s-5.2-1.2-5.1-5.1C164.3,158.7,164.2,134.2,164.2,109.7z"/>
			<path class="st0" d="M142.7,188.2c0-50.5,0-100.7,0.1-151.1c0-2,0.6-5.6,1.3-5.7c3.4-0.5,6.9-0.4,10.3,0.1
				c0.6,0.1,1.3,2.5,1.3,3.9c0.1,49.4,0.1,98.9,0.1,148.3c0,3.1-1,4.7-4.3,4.6C148.6,188.1,145.9,188.2,142.7,188.2z"/>
		</g>
		<g class="st1">
			<path class="st0" d="M201.5,94.2V63.7l12.5,6.2v14.9h3.2V68l-15.7-7.8V31.7h28.1v28.6L217.2,54V41.1H214v14.8l15.7,7.9v30.5
				H201.5z"/>
			<path class="st0" d="M263.9,31.7v28.6h-0.1l-6.2-19.2h-3.1v53h-12.5v-53H239l-6.2,19.2l-0.1-28.6H263.9z"/>
			<path class="st0" d="M282.7,94.2V66.1l-3.2-3.2v31.3H267V31.7h28.1v62.6H282.7z M282.7,41.1h-3.2v8.6l3.2,3.1V41.1z"/>
			<path class="st0" d="M329.4,31.7v28.6h-0.1l-6.2-19.2h-3.1v53h-12.5v-53h-3.1l-6.2,19.2l-0.1-28.6H329.4z"/>
			<path class="st0" d="M332.5,94.2V63.7l12.5,6.2v14.9h3.2V68l-15.7-7.8V31.7h28.1v28.6L348.2,54V41.1H345v14.8l15.7,7.9v30.5
				H332.5z"/>
		</g>
		<g class="st1">
			<path class="st0" d="M201.5,187.7v-30.5l12.5,6.2v14.9h3.2v-16.8l-15.7-7.8v-28.5h28.1v28.6l-12.5-6.2v-12.9H214v14.8l15.7,7.9
				v30.5H201.5z"/>
			<path class="st0" d="M232.8,125.1h12.5v21.1l3.2-3.1v-18h12.5v62.6h-12.5v-31.3l-3.2,3.2v28.1h-12.5V125.1z"/>
			<path class="st0" d="M276.5,134.6v16l4.7-4.7v13.2l-4.7,4.7v14.5h3.1v-7.9l12.5-6.2v23.5h-28v-62.5h28l-6.2,9.4H276.5z"/>
			<path class="st0" d="M307.6,134.6v16l4.7-4.7v13.2l-4.7,4.7v14.5h3.1v-7.9l12.5-6.2v23.5h-28v-62.5h28l-6.2,9.4H307.6z"/>
			<path class="st0" d="M357.5,125.2v28.6h-0.1l-6.2-19.2h-3.1v53h-12.5v-53h-3.1l-6.2,19.2l-0.1-28.6H357.5z"/>
		</g>
		<rect x="0.5" y="0.5" class="st2" width="403" height="227"/>
	</g>
</g>
</svg>
