<svg xmlns="http://www.w3.org/2000/svg" viewBox="0 0 404 228"><defs><style>.cls-1,.cls-2{fill:#fff;}.cls-2{font-size:77.89px;font-family:BlackMustang, Black Mustang;}.cls-3{fill:none;stroke:#fff;stroke-miterlimit:10;}</style></defs><g id="Calque_2" data-name="Calque 2"><g id="Calque_1-2" data-name="Calque 1"><g id="a3ukOV"><path class="cls-1" d="M41.52,109.6q0-34.72,0-69.45c0-8,1.41-9.4,9.19-9.41h73.43c7.59,0,9.21,1.56,9.21,9q0,69.93,0,139.88c0,7-1.52,8.57-8.5,8.58q-37.47.06-74.94,0c-6.95,0-8.38-1.52-8.38-8.64Q41.5,144.56,41.52,109.6Zm23.1,37c-6.51.06-12-1-11.59,7.1,0,5.33,1.79,6.89,7.86,6.93h7c6.59,0,8-1.27,7.94-7.18C76.12,145.46,71.38,146.79,64.62,146.63Zm48.25,0c-6.12.2-12-1.57-12,6.78,0,5.19,1.68,7.11,6.58,7.23,3,.08,6,0,9,0,5.71-.05,7.27-1.53,7.31-6.87C124.2,145.6,119.55,146.74,112.87,146.63ZM76.22,53.25c-6,0-12-.2-17.95.12-1.93.1-3.79,1.56-5.68,2.39,1.81.93,3.61,2.61,5.45,2.64q17.94.36,35.9,0c1.75,0,3.47-1.57,5.2-2.41-1.65-.92-3.27-2.53-5-2.62C88.2,53.05,82.21,53.25,76.22,53.25Zm-.53,24.3c6.31,0,12.64.17,18.94-.13,1.54-.07,3-1.68,4.49-2.58C97.74,74,96.37,72.47,95,72.45q-19.2-.27-38.4,0c-1.35,0-2.67,1.64-4,2.52,1.39.85,2.75,2.39,4.18,2.45C63.05,77.7,69.37,77.54,75.69,77.55Zm.1,13.82c-6.48,0-13-.12-19.45.11-1.27,0-2.5,1.47-3.75,2.26,1.29,1,2.57,2.7,3.88,2.72q19.44.32,38.9,0c1.26,0,2.48-1.86,3.72-2.85-1.28-.75-2.54-2.09-3.85-2.14C88.76,91.25,82.27,91.37,75.79,91.37Zm-.16,24.22c6.48,0,13,.15,19.44-.12,1.39-.06,2.71-1.64,4.07-2.52-1.37-.84-2.73-2.39-4.11-2.41q-19.19-.29-38.39,0c-1.37,0-2.71,1.58-4.07,2.43,1.37.87,2.71,2.44,4.12,2.5C63,115.74,69.31,115.59,75.63,115.59Zm.18,13.88v0c-6.48,0-13-.12-19.43.11-1.29,0-2.52,1.43-3.78,2.2,1.29.93,2.57,2.66,3.87,2.68q19.44.3,38.88,0c1.27,0,2.5-1.8,3.74-2.77-1.28-.74-2.54-2.07-3.84-2.12C88.78,129.35,82.29,129.47,75.81,129.47Zm36.33-71a53.09,53.09,0,0,0,7.47-.11c1-.15,1.84-1.56,2.75-2.4-.85-.86-1.66-2.42-2.56-2.46a142.33,142.33,0,0,0-14.46,0c-.92,0-1.78,1.51-2.66,2.31,1,.91,1.86,2.37,3,2.59C107.75,58.79,110,58.49,112.14,58.47Zm.72,13.92v0a56.34,56.34,0,0,0-7.47.11c-1,.13-1.81,1.45-2.71,2.23.81.9,1.57,2.52,2.43,2.57a139.49,139.49,0,0,0,14.46.07c1,0,1.85-1.53,2.78-2.35-1-.88-1.89-2.31-3-2.53A34,34,0,0,0,112.86,72.39Zm-.81,24.16a43.21,43.21,0,0,0,7.47-.14c1.07-.18,1.88-1.82,2.81-2.8-1-.73-1.92-2-2.92-2.09-4.66-.22-9.33-.22-14,0-1,0-1.84,1.44-2.76,2.22,1,.92,1.8,2.43,2.91,2.66C107.66,96.85,109.89,96.54,112.05,96.55Zm.46,19h0c2.33,0,4.72.31,7-.13,1.08-.2,1.9-1.79,2.84-2.76-1-.73-1.89-2-2.89-2.1-4.65-.22-9.32-.22-14,0-1,0-1.86,1.4-2.79,2.16,1,.93,1.78,2.48,2.87,2.68A38.5,38.5,0,0,0,112.51,115.55Zm0,19a37.76,37.76,0,0,0,6.9-.13c1.1-.2,2-1.7,2.93-2.61-.92-.77-1.8-2.16-2.75-2.2-4.77-.22-9.56-.22-14.33,0-.91,0-1.75,1.46-2.63,2.25,1,.89,1.87,2.34,3,2.54A40.77,40.77,0,0,0,112.52,134.57Z"/><path class="cls-1" d="M164.23,109.71c0-24.48,0-48.95.07-73.42,0-1.79.82-5,1.57-5.12a40.69,40.69,0,0,1,10.27.34c.46.06.89,2.33.89,3.58q.08,74.41.1,148.84c.06,5.9-3.87,3.84-7.84,4.29s-5.16-1.16-5.13-5.09C164.34,158.66,164.21,134.18,164.23,109.71Z"/><path class="cls-1" d="M142.68,188.19c0-50.46,0-100.66.06-151.09,0-2,.55-5.59,1.31-5.72a34.62,34.62,0,0,1,10.26.09c.6.07,1.28,2.53,1.28,3.89q.09,74.15.1,148.31c0,3.14-1,4.69-4.29,4.55C148.64,188.09,145.87,188.19,142.68,188.19Z"/></g><text class="cls-2" transform="translate(199.97 94.22)">Stats<tspan x="0" y="93.47">sheet</tspan></text><rect class="cls-3" x="0.5" y="0.5" width="403" height="227"/></g></g></svg>